# xmcd
#
# Track frame offsets:
# 150
# 8795
# 25745
# 40138
# 55085
# 70238
# 92398
# 109293
# 124405
# 141120
# 158079
# 175458
# 191905
# 208331
#
# Disc length: 3097 seconds
#
# Revision: 1
# Processed by: cddbd v1.5.2PL0 Copyright (c) Steve Scherf et al.
# Submitted via: Easy CD Ripper v2.38
#
DISCID=c60c170e
DTITLE=Moby - Hotel
DYEAR=2006
DGENRE=R&B
TTITLE0=Hotel Intro - Moby
TTITLE1=Raining again - Moby
TTITLE2=Beutiful - Moby
TTITLE3=Lift Me Up - Moby
TTITLE4=Where You End - Moby
TTITLE5=Temptation - Moby
TTITLE6=Spiders - Moby
TTITLE7=Dream About Me - Moby
TTITLE8=Very - Moby
TTITLE9=I Like It - Moby
TTITLE10=Love Should - Moby
TTITLE11=Slipping Away - Moby
TTITLE12=Forever - Moby
TTITLE13=Homeard Angel - Moby
EXTD=
EXTT0=
EXTT1=
EXTT2=
EXTT3=
EXTT4=
EXTT5=
EXTT6=
EXTT7=
EXTT8=
EXTT9=
EXTT10=
EXTT11=
EXTT12=
EXTT13=
PLAYORDER=
